<svg width="48" height="48" viewBox="0 0 48 48" fill="none" xmlns="http://www.w3.org/2000/svg">
<g clip-path="url(#clip0_1343_2213)">
<path fill-rule="evenodd" clip-rule="evenodd" d="M19 19.7852C19 18.9567 19.6716 18.2852 20.5 18.2852H28.5C29.3284 18.2852 30 18.9567 30 19.7852V27.7852C30 28.6136 29.3284 29.2852 28.5 29.2852H20.5C19.6716 29.2852 19 28.6136 19 27.7852V19.7852ZM22 21.2852V26.2852H27V21.2852H22Z" fill="#8CC540"/>
<path d="M25.4499 2.33906C24.8974 1.88698 24.1027 1.88698 23.5502 2.33906L11 12.6074V7.5C11 6.67157 10.3284 6 9.5 6C8.67157 6 8 6.67157 8 7.5V15.0619L1.55019 20.3391C0.909021 20.8637 0.814518 21.8087 1.33911 22.4499C1.8637 23.091 2.80873 23.1855 3.4499 22.6609L10.4288 16.9509C10.4425 16.9401 10.456 16.9291 10.4693 16.9178L24.5 5.43809L45.5502 22.6609C46.1914 23.1855 47.1364 23.091 47.661 22.4499C48.1856 21.8087 48.0911 20.8637 47.4499 20.3391L25.4499 2.33906Z" fill="#004BBC"/>
<path fill-rule="evenodd" clip-rule="evenodd" d="M20.5723 35.0703C19.7438 35.0703 19.0723 35.7419 19.0723 36.5703V44H9V24.5C9 23.6716 8.32843 23 7.5 23C6.67157 23 6 23.6716 6 24.5V45.5C6 46.3284 6.67157 47 7.5 47H41.5C42.3284 47 43 46.3284 43 45.5V24.5C43 23.6716 42.3284 23 41.5 23C40.6716 23 40 23.6716 40 24.5V44H30.0723V36.5703C30.0723 35.7419 29.4007 35.0703 28.5723 35.0703H20.5723ZM27.0723 44H22.0723V38.0703H27.0723V44Z" fill="#004BBC"/>
</g>
<defs>
<clipPath id="clip0_1343_2213">
<rect width="48" height="48" fill="white"/>
</clipPath>
</defs>
</svg>
