<svg width="18" height="18" viewBox="0 0 18 18" fill="none" xmlns="http://www.w3.org/2000/svg">
<path d="M0.326601 17.6734C-0.108867 17.2379 -0.108867 16.5319 0.3266 16.0964L7.42303 8.99992L0.326757 1.90358C-0.10871 1.46811 -0.10871 0.762075 0.326758 0.326603C0.762225 -0.108868 1.46826 -0.108868 1.90373 0.326604L9 7.42294L16.0963 0.326604C16.5317 -0.108868 17.2378 -0.108868 17.6732 0.326603C18.1087 0.762075 18.1087 1.46811 17.6732 1.90358L10.577 8.99992L17.6734 16.0964C18.1089 16.5319 18.1089 17.2379 17.6734 17.6734C17.2379 18.1089 16.5319 18.1089 16.0964 17.6734L9 10.5769L1.90357 17.6734C1.4681 18.1089 0.762068 18.1089 0.326601 17.6734Z" fill="#0E1F40"/>
</svg>
