<svg width="40" height="40" viewBox="0 0 40 40" fill="none" xmlns="http://www.w3.org/2000/svg">
<circle cx="20" cy="20" r="20" fill="#004BBC"/>
<path d="M18.5939 28.9142V22.6256H16.3081V20.0234H18.5939V18.0402C18.5939 15.7835 19.938 14.5381 21.9934 14.5381C22.9781 14.5381 24.0083 14.7141 24.0083 14.7141V16.9289H22.873C21.7542 16.9289 21.4061 17.6238 21.4061 18.3351V20.0234H23.902L23.5033 22.6256H21.4061V28.9142C25.7088 28.2392 29 24.5157 29 20.0234C29 15.0529 24.9706 11.0234 20 11.0234C15.0294 11.0234 11 15.0529 11 20.0234C11 24.5157 14.2912 28.2392 18.5939 28.9142Z" fill="white"/>
</svg>
