<svg width="12" height="12" viewBox="0 0 12 12" fill="none" xmlns="http://www.w3.org/2000/svg">
<path fill-rule="evenodd" clip-rule="evenodd" d="M0.554121 6.44673C0.212429 6.10504 0.212429 5.55105 0.554121 5.20936L5.38147 0.382008C5.54556 0.217921 5.76811 0.125739 6.00016 0.125739C6.23221 0.125739 6.45476 0.217921 6.61885 0.382008L11.4462 5.20936C11.7879 5.55105 11.7879 6.10504 11.4462 6.44673C11.1045 6.78843 10.5505 6.78843 10.2088 6.44673L6.87512 3.11303L6.87512 11C6.87512 11.4832 6.48338 11.875 6.00016 11.875C5.51693 11.875 5.1252 11.4832 5.1252 11L5.1252 3.11303L1.7915 6.44673C1.4498 6.78843 0.895813 6.78843 0.554121 6.44673Z" fill="#7CB135"/>
</svg>
