<svg width="48" height="48" viewBox="0 0 48 48" fill="none" xmlns="http://www.w3.org/2000/svg">
<path d="M15.0029 3.57048C14.7217 3.28905 14.3401 3.13091 13.9422 3.13086C13.5443 3.13081 13.1627 3.28885 12.8813 3.5702L2.43934 14.0122C1.85711 14.5944 1.85306 15.5372 2.43027 16.1244L5 18.7386V21.4999C5 22.3283 5.67157 22.9999 6.5 22.9999C7.32843 22.9999 8 22.3283 8 21.4999V18.1249C8 17.7315 7.84548 17.3539 7.56973 17.0734L5.61225 15.0819L13.9417 6.75246L14.7491 7.56024C15.0304 7.84171 15.412 7.99986 15.81 7.99986H19.5C20.3284 7.99986 21 7.32829 21 6.49986C21 5.67143 20.3284 4.99986 19.5 4.99986H16.4316L15.0029 3.57048Z" fill="#004BBC"/>
<path d="M31.3396 16.136C31.9327 15.5576 32.8824 15.5697 33.4607 16.1628L43.4782 26.4374C44.231 27.2117 44.6607 28.2437 44.68 29.3235C44.6992 30.4033 44.3065 31.4499 43.5818 32.2506C43.1955 32.6773 42.7266 33.0211 42.2034 33.2612C41.9133 33.3943 41.6099 33.4939 41.299 33.5587C41.3138 33.7041 41.3213 33.8504 41.3213 33.997C41.3213 34.5649 41.2094 35.1272 40.9921 35.6519C40.7747 36.1765 40.4562 36.6532 40.0546 37.0547C39.2435 37.8648 38.1434 38.3204 36.997 38.3204L36.9654 38.3203C36.9113 38.6392 36.8215 38.9517 36.6971 39.252C36.4798 39.7766 36.1613 40.2533 35.7597 40.6548C34.9485 41.4649 33.8484 41.9205 32.7021 41.9205C32.4487 41.9205 32.1977 41.8983 31.9515 41.8549C31.9058 42.0163 31.8506 42.1751 31.7862 42.3306C31.569 42.855 31.2506 43.3315 30.8493 43.7329C30.3042 44.2791 29.6225 44.6691 28.8753 44.8621C28.0732 45.0693 27.255 44.587 27.0478 43.785C26.8406 42.9829 27.3229 42.1647 28.125 41.9574C28.3525 41.8987 28.5602 41.7799 28.7261 41.6134L29.7882 42.6728L28.7276 41.612C28.8505 41.4891 28.9481 41.3431 29.0146 41.1825C29.0812 41.0218 29.1154 40.8496 29.1154 40.6758C29.1154 40.5019 29.0812 40.3297 29.0146 40.1691C28.9481 40.0084 28.8505 39.8624 28.7276 39.7395L27.4335 38.4454C26.8477 37.8596 26.8477 36.9099 27.4335 36.3241C28.0193 35.7383 28.969 35.7383 29.5548 36.3241L30.8487 37.618C31.0426 37.8119 31.2172 38.0234 31.3704 38.2493C31.5128 38.3197 31.6464 38.4142 31.7651 38.5328C32.0137 38.7811 32.3507 38.9205 32.7021 38.9205C33.0532 38.9205 33.3899 38.7813 33.6385 38.5334L33.6385 36.7599L30.9393 34.0607C30.3536 33.4749 30.3536 32.5251 30.9393 31.9393C31.5251 31.3536 32.4749 31.3536 33.0607 31.9393L35.3891 34.2678C35.5225 34.3369 35.6477 34.4275 35.7597 34.5394C35.9197 34.6994 36.0665 34.8713 36.199 35.0535C36.4277 35.2257 36.7074 35.3204 36.997 35.3204C37.3481 35.3204 37.6848 35.1812 37.9334 34.9333L37.9334 33.0548L34.9393 30.0607C34.3536 29.4749 34.3536 28.5251 34.9393 27.9393C35.5251 27.3536 36.4749 27.3536 37.0607 27.9393L39.0911 29.9698C39.2572 30.0426 39.4128 30.1469 39.5489 30.2828C39.6686 30.4024 39.8113 30.4964 39.9685 30.5591C40.1256 30.6219 40.2938 30.6521 40.463 30.6478C40.6321 30.6436 40.7987 30.605 40.9524 30.5344C41.1062 30.4639 41.2441 30.3628 41.3576 30.2374C41.5707 30.002 41.6861 29.6943 41.6804 29.3769C41.6748 29.0598 41.5487 28.7567 41.3278 28.5292L41.3287 28.5301L42.4027 27.483L41.3278 28.5292L31.3127 18.2571C30.7344 17.6639 30.7464 16.7143 31.3396 16.136Z" fill="#004BBC"/>
<path d="M35.058 3.13086C35.4559 3.13081 35.8375 3.28885 36.1189 3.5702L46.5609 14.0122C47.1431 14.5944 47.1471 15.5372 46.5699 16.1244L44.0002 18.7386V21.4999C44.0002 22.3283 43.3286 22.9999 42.5002 22.9999C41.6718 22.9999 41.0002 22.3283 41.0002 21.4999V18.1249C41.0002 17.7315 41.1547 17.3539 41.4305 17.0734L43.388 15.0819L35.0585 6.75246L34.2511 7.56024C33.9698 7.84171 33.5882 7.99986 33.1902 7.99986H28.5002C26.5669 7.99943 24.7108 8.75889 23.3325 10.114L16.6802 17.0318C16.515 17.2032 16.4191 17.4297 16.4109 17.6676C16.4027 17.9055 16.4828 18.1381 16.6358 18.3205C16.7888 18.5028 17.0039 18.6221 17.2397 18.6554C17.4754 18.6886 17.7151 18.6334 17.9126 18.5005C17.9209 18.4949 17.9293 18.4894 17.9377 18.484L25.0377 13.909C25.6613 13.5072 26.4849 13.6215 26.9754 14.1779C27.4456 14.7113 28.0251 15.137 28.6746 15.4263C29.3241 15.7156 30.0283 15.8615 30.7392 15.8543C31.4502 15.847 32.1512 15.6866 32.7946 15.3841C33.4381 15.0816 34.0088 14.644 34.4679 14.1012C35.0029 13.4687 35.9494 13.3896 36.5819 13.9246C37.2144 14.4596 37.2935 15.406 36.7585 16.0385C36.021 16.9104 35.1045 17.6132 34.0711 18.099C33.0377 18.5849 31.9118 18.8424 30.7699 18.8541C29.6281 18.8658 28.4972 18.6314 27.454 18.1668C26.8119 17.8808 26.2123 17.5117 25.6701 17.0704L19.5739 20.9986C18.7644 21.5384 17.7845 21.7619 16.8207 21.626C15.8514 21.4893 14.9669 20.9987 14.3377 20.2488C13.7084 19.4989 13.3789 18.5427 13.4126 17.5644C13.4463 16.5864 13.8405 15.6555 14.5194 14.9507L21.184 8.02015C21.1928 8.01095 21.2018 8.00185 21.2109 7.99288C23.1521 6.07477 25.7712 4.99934 28.5002 4.99986H32.5686L33.9973 3.57048C34.2785 3.28905 34.6601 3.13091 35.058 3.13086Z" fill="#8CC540"/>
<path fill-rule="evenodd" clip-rule="evenodd" d="M4.49625 31.6177C2.88927 30.0107 2.88927 27.4053 4.49625 25.7983L5.18216 25.1124C6.78915 23.5054 9.39458 23.5054 11.0016 25.1124C11.901 26.0118 12.297 27.224 12.1896 28.3989C13.3119 28.3907 14.4368 28.8148 15.2932 29.6711C16.0602 30.4381 16.4804 31.4206 16.5538 32.4237C17.5559 32.4946 18.538 32.9132 19.3041 33.6793C19.9536 34.3288 20.3533 35.1335 20.5031 35.9741C21.6666 35.9278 22.8452 36.3488 23.7335 37.2371C25.4222 38.9258 25.4222 41.6636 23.7335 43.3522L23.3524 43.7333C21.6638 45.4219 18.926 45.4219 17.2373 43.7333C16.5451 43.0411 16.1366 42.1725 16.012 41.2722C14.9131 41.2663 13.816 40.8442 12.9776 40.0058C12.3564 39.3846 11.9637 38.6214 11.7996 37.8207C10.5825 37.9112 9.33453 37.4911 8.40383 36.5604C7.3842 35.5408 6.97742 34.1404 7.18347 32.817C6.2057 32.7643 5.24314 32.3646 4.49625 31.6177ZM6.61757 27.9196C6.18216 28.355 6.18216 29.061 6.61757 29.4964C7.05298 29.9318 7.75892 29.9318 8.19433 29.4964L8.88024 28.8105C9.31565 28.3751 9.31565 27.6691 8.88024 27.2337C8.44483 26.7983 7.73889 26.7983 7.30348 27.2337L6.61757 27.9196ZM10.5252 32.5384C10.0003 33.0633 10.0003 33.9143 10.5252 34.4391C11.05 34.964 11.901 34.964 12.4259 34.4391L13.1719 33.6931C13.6967 33.1683 13.6967 32.3173 13.1719 31.7924C12.647 31.2676 11.796 31.2676 11.2711 31.7924L10.5252 32.5384ZM19.3587 41.612C18.8416 41.0949 18.8416 40.2566 19.3587 39.7396L19.7398 39.3584C20.2568 38.8414 21.0952 38.8414 21.6122 39.3584C22.1293 39.8755 22.1293 40.7138 21.6122 41.2309L21.2311 41.612C20.714 42.129 19.8757 42.129 19.3587 41.612ZM15.0989 37.8844C14.5818 37.3674 14.5818 36.5291 15.0989 36.012L15.3103 35.8006C15.8274 35.2836 16.6657 35.2836 17.1827 35.8006C17.6998 36.3177 17.6998 37.156 17.1827 37.673L16.9713 37.8844C16.4543 38.4015 15.616 38.4015 15.0989 37.8844Z" fill="#8CC540"/>
</svg>
