<svg width="48" height="48" viewBox="0 0 48 48" fill="none" xmlns="http://www.w3.org/2000/svg">
<path d="M16.3516 15.9258C16.3516 15.0974 15.68 14.4258 14.8516 14.4258C14.0231 14.4258 13.3516 15.0974 13.3516 15.9258V18.014C13.3516 18.8424 14.0231 19.514 14.8516 19.514C15.68 19.514 16.3516 18.8424 16.3516 18.014V15.9258Z" fill="#8CC540"/>
<path d="M22.6172 15.9258C22.6172 15.0974 21.9456 14.4258 21.1172 14.4258C20.2888 14.4258 19.6172 15.0974 19.6172 15.9258V18.014C19.6172 18.8424 20.2888 19.514 21.1172 19.514C21.9456 19.514 22.6172 18.8424 22.6172 18.014V15.9258Z" fill="#8CC540"/>
<path d="M27.3828 14.4258C28.2112 14.4258 28.8828 15.0974 28.8828 15.9258V18.014C28.8828 18.8424 28.2112 19.514 27.3828 19.514C26.5544 19.514 25.8828 18.8424 25.8828 18.014V15.9258C25.8828 15.0974 26.5544 14.4258 27.3828 14.4258Z" fill="#8CC540"/>
<path d="M35.1484 15.9258C35.1484 15.0974 34.4769 14.4258 33.6484 14.4258C32.82 14.4258 32.1484 15.0974 32.1484 15.9258V18.014C32.1484 18.8424 32.82 19.514 33.6484 19.514C34.4769 19.514 35.1484 18.8424 35.1484 18.014V15.9258Z" fill="#8CC540"/>
<path d="M14.8516 22.7812C15.68 22.7812 16.3516 23.4528 16.3516 24.2812V26.3695C16.3516 27.1979 15.68 27.8695 14.8516 27.8695C14.0231 27.8695 13.3516 27.1979 13.3516 26.3695V24.2812C13.3516 23.4528 14.0231 22.7812 14.8516 22.7812Z" fill="#8CC540"/>
<path d="M22.6172 24.2812C22.6172 23.4528 21.9456 22.7812 21.1172 22.7812C20.2888 22.7812 19.6172 23.4528 19.6172 24.2812V26.3695C19.6172 27.1979 20.2888 27.8695 21.1172 27.8695C21.9456 27.8695 22.6172 27.1979 22.6172 26.3695V24.2812Z" fill="#8CC540"/>
<path d="M27.3828 22.7812C28.2112 22.7812 28.8828 23.4528 28.8828 24.2812V26.3695C28.8828 27.1979 28.2112 27.8695 27.3828 27.8695C26.5544 27.8695 25.8828 27.1979 25.8828 26.3695V24.2812C25.8828 23.4528 26.5544 22.7812 27.3828 22.7812Z" fill="#8CC540"/>
<path d="M35.1484 24.2812C35.1484 23.4528 34.4769 22.7812 33.6484 22.7812C32.82 22.7812 32.1484 23.4528 32.1484 24.2812V26.3695C32.1484 27.1979 32.82 27.8695 33.6484 27.8695C34.4769 27.8695 35.1484 27.1979 35.1484 26.3695V24.2812Z" fill="#8CC540"/>
<path fill-rule="evenodd" clip-rule="evenodd" d="M23.8268 3.00236C24.1031 2.92109 24.3969 2.92109 24.6733 3.00236L42.4233 8.22295C43.0616 8.4107 43.5 8.99658 43.5 9.66199V44.1179C43.5 44.9463 42.8284 45.6179 42 45.6179H28.4265C27.598 45.6179 26.9265 44.9463 26.9265 44.1179V37.2649H21.5735V44.1179C21.5735 44.9463 20.902 45.6179 20.0735 45.6179H6.5C5.67157 45.6179 5 44.9463 5 44.1179V9.66199C5 8.99658 5.43838 8.4107 6.07675 8.22295L23.8268 3.00236ZM8 10.7844V42.6179H18.5735V35.7649C18.5735 34.9365 19.2451 34.2649 20.0735 34.2649H28.4265C29.2549 34.2649 29.9265 34.9365 29.9265 35.7649V42.6179H40.5V10.7844L24.25 6.00494L8 10.7844Z" fill="#004BBC"/>
</svg>
