<svg width="40" height="40" viewBox="0 0 40 40" fill="none" xmlns="http://www.w3.org/2000/svg">
<circle cx="20" cy="20" r="20" fill="#004BBC"/>
<path d="M20.0002 15.845C17.7017 15.845 15.8477 17.6994 15.8477 19.9984C15.8477 22.2975 17.7017 24.1519 20.0002 24.1519C22.2988 24.1519 24.1528 22.2975 24.1528 19.9984C24.1528 17.6994 22.2988 15.845 20.0002 15.845ZM20.0002 22.6987C18.5149 22.6987 17.3005 21.4878 17.3005 19.9984C17.3005 18.5091 18.5113 17.2981 20.0002 17.2981C21.4892 17.2981 22.6999 18.5091 22.6999 19.9984C22.6999 21.4878 21.4856 22.6987 20.0002 22.6987ZM25.2912 15.6751C25.2912 16.2137 24.8575 16.6438 24.3227 16.6438C23.7842 16.6438 23.3541 16.2101 23.3541 15.6751C23.3541 15.1401 23.7878 14.7063 24.3227 14.7063C24.8575 14.7063 25.2912 15.1401 25.2912 15.6751ZM28.0415 16.6583C27.9801 15.3606 27.6837 14.211 26.7332 13.264C25.7863 12.3169 24.6371 12.0204 23.3396 11.9554C22.0024 11.8795 17.9944 11.8795 16.6572 11.9554C15.3634 12.0168 14.2141 12.3132 13.2636 13.2603C12.3132 14.2074 12.0204 15.357 11.9554 16.6547C11.8795 17.9922 11.8795 22.0011 11.9554 23.3386C12.0168 24.6363 12.3132 25.7858 13.2636 26.7329C14.2141 27.68 15.3598 27.9764 16.6572 28.0415C17.9944 28.1174 22.0024 28.1174 23.3396 28.0415C24.6371 27.9801 25.7863 27.6836 26.7332 26.7329C27.6801 25.7858 27.9765 24.6363 28.0415 23.3386C28.1174 22.0011 28.1174 17.9958 28.0415 16.6583ZM26.314 24.7737C26.0321 25.4822 25.4864 26.028 24.7744 26.3136C23.7083 26.7365 21.1784 26.6389 20.0002 26.6389C18.8221 26.6389 16.2886 26.7329 15.2261 26.3136C14.5177 26.0316 13.972 25.4858 13.6865 24.7737C13.2636 23.7073 13.3612 21.1769 13.3612 19.9984C13.3612 18.82 13.2673 16.286 13.6865 15.2232C13.9684 14.5147 14.5141 13.9688 15.2261 13.6833C16.2922 13.2603 18.8221 13.3579 20.0002 13.3579C21.1784 13.3579 23.7119 13.264 24.7744 13.6833C25.4828 13.9652 26.0285 14.5111 26.314 15.2232C26.7368 16.2896 26.6393 18.82 26.6393 19.9984C26.6393 21.1769 26.7368 23.7109 26.314 24.7737Z" fill="white"/>
</svg>
