<svg width="48" height="48" viewBox="0 0 48 48" fill="none" xmlns="http://www.w3.org/2000/svg">
<path d="M9.10083 32.6842C9.81361 32.262 10.0492 31.3419 9.62704 30.6291C9.20487 29.9164 8.28481 29.6808 7.57202 30.1029C6.34165 30.8317 5.1577 31.6361 4.02701 32.5115C3.66009 32.7956 3.44531 33.2335 3.44531 33.6975V42.9998C3.44531 43.8282 4.11689 44.4998 4.94531 44.4998H44.0564C44.8848 44.4998 45.5564 43.8282 45.5564 42.9998V33.6975C45.5564 33.2335 45.3416 32.7956 44.9747 32.5115C43.844 31.6361 42.6601 30.8317 41.4297 30.1029C40.7169 29.6808 39.7969 29.9164 39.3747 30.6291C38.9525 31.3419 39.1881 32.262 39.9009 32.6842C40.8153 33.2257 41.7016 33.8131 42.5564 34.4439V41.4998H6.44531V34.4439C7.30016 33.8131 8.18645 33.2257 9.10083 32.6842Z" fill="#004BBC"/>
<path d="M16.9434 33.0557C17.7718 33.0557 18.4434 33.7272 18.4434 34.5557V37.2223C18.4434 38.0508 17.7718 38.7223 16.9434 38.7223C16.1149 38.7223 15.4434 38.0508 15.4434 37.2223V34.5557C15.4434 33.7272 16.1149 33.0557 16.9434 33.0557Z" fill="#004BBC"/>
<path d="M31.166 33.0557C31.9944 33.0557 32.666 33.7272 32.666 34.5557V37.2223C32.666 38.0508 31.9944 38.7223 31.166 38.7223C30.3376 38.7223 29.666 38.0508 29.666 37.2223V34.5557C29.666 33.7272 30.3376 33.0557 31.166 33.0557Z" fill="#004BBC"/>
<path fill-rule="evenodd" clip-rule="evenodd" d="M17.388 1.5C15.3371 1.5 13.5948 2.61188 12.4166 4.18292C11.2394 5.75264 10.5554 7.85213 10.5546 10.1074C10.5491 11.3206 10.7571 12.5227 11.1665 13.6594C9.5847 15.6859 8.73525 18.2009 8.77685 20.7906C8.78249 26.1938 12.3414 31.1667 17.388 31.1667C22.4345 31.1667 25.9934 26.1938 25.9991 20.7906C26.0406 18.2009 25.1912 15.6859 23.6094 13.6594C24.0188 12.5227 24.2268 11.3207 24.2213 10.1075C24.2205 7.85214 23.5365 5.75264 22.3593 4.18292C21.1811 2.61188 19.4389 1.5 17.388 1.5ZM13.5546 10.1111C13.5546 8.4407 14.0643 6.98607 14.8166 5.98286C15.5687 4.98012 16.4931 4.5 17.388 4.5C18.2828 4.5 19.2073 4.98012 19.9593 5.98286C20.7116 6.98607 21.2213 8.4407 21.2213 10.1111L21.2213 10.1185C21.2267 11.2157 20.9861 12.3003 20.5172 13.2923C20.2548 13.8474 20.3572 14.5063 20.7756 14.9556C22.2391 16.5271 23.0362 18.6049 22.9993 20.752L22.9991 20.7778C22.9991 25.1883 20.1916 28.1667 17.388 28.1667C14.5843 28.1667 11.7768 25.1883 11.7768 20.7778L11.7766 20.752C11.7397 18.6049 12.5368 16.5271 14.0003 14.9556C14.4187 14.5063 14.5211 13.8474 14.2588 13.2923C13.7898 12.3003 13.5492 11.2157 13.5546 10.1185L13.5546 10.1111Z" fill="#8CC540"/>
<path d="M31.6113 1.5C31.5827 1.5 31.5541 1.50082 31.5255 1.50245C30.3752 1.56832 29.263 1.93836 28.3025 2.57477C27.342 3.21118 26.5676 4.09115 26.0585 5.12479C25.6925 5.86797 25.9982 6.76716 26.7414 7.13319C27.4846 7.49923 28.3837 7.1935 28.7498 6.45032C29.0242 5.89309 29.4417 5.41871 29.9595 5.07562C30.465 4.74067 31.0485 4.54259 31.653 4.50035C32.5348 4.51503 33.4422 4.99569 34.1826 5.98286C34.9349 6.98607 35.4446 8.4407 35.4446 10.1111L35.4446 10.1185C35.45 11.2157 35.2094 12.3003 34.7405 13.2923C34.4781 13.8474 34.5805 14.5063 34.9989 14.9556C36.4624 16.5271 37.2595 18.6049 37.2226 20.752L37.2224 20.7778C37.2224 25.1821 34.4228 28.1584 31.623 28.1666C30.6134 28.1487 29.6383 27.796 28.8508 27.1637C28.2049 26.645 27.2607 26.7482 26.7421 27.3942C26.2234 28.0402 26.3266 28.9843 26.9726 29.503C28.2833 30.5554 29.9075 31.1408 31.5883 31.1665L31.6113 31.1667C36.6578 31.1667 40.2167 26.1938 40.2224 20.7906C40.264 18.2009 39.4145 15.6859 37.8327 13.6594C38.2421 12.5227 38.4501 11.3207 38.4446 10.1075C38.4439 7.85214 37.7598 5.75264 36.5826 4.18292C35.4044 2.61188 33.6622 1.5 31.6113 1.5Z" fill="#8CC540"/>
</svg>
