<svg width="40" height="40" viewBox="0 0 40 40" fill="none" xmlns="http://www.w3.org/2000/svg">
<circle cx="20" cy="20" r="20" fill="#004BBC"/>
<path d="M13.0553 11.8984H26.9416C27.2484 11.8984 27.5427 12.0203 27.7596 12.2373C27.9766 12.4542 28.0984 12.7485 28.0984 13.0553V26.9416C28.0984 27.2484 27.9766 27.5427 27.7596 27.7596C27.5427 27.9766 27.2484 28.0984 26.9416 28.0984H13.0553C12.7485 28.0984 12.4542 27.9766 12.2373 27.7596C12.0203 27.5427 11.8984 27.2484 11.8984 26.9416V13.0553C11.8984 12.7485 12.0203 12.4542 12.2373 12.2373C12.4542 12.0203 12.7485 11.8984 13.0553 11.8984ZM14.6299 16.4746C14.8947 16.6613 15.2178 16.7465 15.5401 16.7147C15.8625 16.683 16.1627 16.5364 16.386 16.3017C16.6093 16.067 16.7407 15.7598 16.7564 15.4363C16.772 15.1127 16.6708 14.7943 16.4711 14.5392C16.2715 14.284 15.9868 14.1092 15.669 14.0465C15.3512 13.9838 15.0214 14.0375 14.7399 14.1978C14.4584 14.358 14.2439 14.6142 14.1355 14.9194C14.0271 15.2247 14.0321 15.5588 14.1496 15.8607C14.2462 16.1083 14.4138 16.3219 14.6314 16.4746H14.6299ZM23.4697 25.7862H25.7848L25.7535 20.9727C25.7535 18.6036 24.2954 17.8873 22.9296 17.8873C22.4361 17.8814 21.9481 17.9924 21.5058 18.2112C21.0634 18.4301 20.679 18.7506 20.3843 19.1464V18.0735H18.0706V25.789H20.3857V21.9277C20.3625 21.6892 20.3877 21.4486 20.4597 21.2201C20.5316 20.9916 20.6489 20.7799 20.8045 20.5978C20.9601 20.4156 21.1509 20.2667 21.3653 20.1599C21.5798 20.0532 21.8136 19.9908 22.0528 19.9764C22.9055 19.9764 23.4739 20.6088 23.4739 21.8595L23.4697 25.7862ZM14.2121 18.0706V25.7862H16.5272V18.0706H14.2121Z" fill="white"/>
</svg>
