<svg width="131" height="62" viewBox="0 0 131 62" fill="none" xmlns="http://www.w3.org/2000/svg">
<rect width="37" height="37" fill="url(#paint0_linear_1210_2061)"/>
<path d="M19 56C8.50659 56 0 47.4934 0 37C0 26.5066 8.50659 18 19 18C19 31.5 19 45 19 56Z" fill="url(#paint1_linear_1210_2061)"/>
<rect x="19" y="18" width="19" height="38" fill="white"/>
<g filter="url(#filter0_d_1210_2061)">
<circle cx="19" cy="37" r="9" fill="#8CC540"/>
</g>
<rect x="54" y="28" width="1" height="27" fill="#A7AAB9"/>
<path d="M80.872 37.928C81.3627 37.992 81.8267 38.1467 82.264 38.392V39H77.32V38.392C77.4907 38.296 77.672 38.2107 77.864 38.136C78.056 38.0507 78.2587 37.9813 78.472 37.928V28.872C78.2267 28.8187 78.008 28.7493 77.816 28.664C77.6347 28.5787 77.4693 28.4933 77.32 28.408V27.8H85.688C85.688 28.0133 85.6773 28.248 85.656 28.504C85.6347 28.7493 85.608 29.0053 85.576 29.272C85.5547 29.528 85.5227 29.784 85.48 30.04C85.448 30.2853 85.4107 30.5147 85.368 30.728H84.712L83.976 28.84H80.872V33.048H83.064L83.784 31.816H84.264C84.3067 32.0933 84.3333 32.3867 84.344 32.696C84.3653 33.0053 84.376 33.3147 84.376 33.624C84.3653 33.944 84.3493 34.2533 84.328 34.552C84.3173 34.8507 84.296 35.1173 84.264 35.352H83.784L83.064 34.088H80.872V37.928ZM97.2831 39H91.7791V38.392C91.9925 38.3067 92.2325 38.2213 92.4991 38.136C92.7765 38.04 93.0538 37.9707 93.3311 37.928V28.84H91.4751L90.4511 31.576H89.7951C89.7525 31.3627 89.7098 31.0907 89.6671 30.76C89.6245 30.4293 89.5871 30.088 89.5551 29.736C89.5231 29.384 89.4965 29.0373 89.4751 28.696C89.4538 28.344 89.4431 28.0453 89.4431 27.8H99.6351C99.6351 28.056 99.6245 28.3547 99.6031 28.696C99.5818 29.0373 99.5551 29.384 99.5231 29.736C99.4911 30.088 99.4538 30.4293 99.4111 30.76C99.3685 31.08 99.3258 31.352 99.2831 31.576H98.6111L97.5871 28.84H95.7311V37.928C96.0085 37.9813 96.2805 38.0453 96.5471 38.12C96.8245 38.1947 97.0698 38.2853 97.2831 38.392V39Z" fill="#313B74"/>
<path d="M80.872 53.928C81.3627 53.992 81.8267 54.1467 82.264 54.392V55H77.32V54.392C77.4907 54.296 77.672 54.2107 77.864 54.136C78.056 54.0507 78.2587 53.9813 78.472 53.928V44.872C78.2267 44.8187 78.008 44.7493 77.816 44.664C77.6347 44.5787 77.4693 44.4933 77.32 44.408V43.8H85.688C85.688 44.0133 85.6773 44.248 85.656 44.504C85.6347 44.7493 85.608 45.0053 85.576 45.272C85.5547 45.528 85.5227 45.784 85.48 46.04C85.448 46.2853 85.4107 46.5147 85.368 46.728H84.712L83.976 44.84H80.872V49.048H83.064L83.784 47.816H84.264C84.3067 48.0933 84.3333 48.3867 84.344 48.696C84.3653 49.0053 84.376 49.3147 84.376 49.624C84.3653 49.944 84.3493 50.2533 84.328 50.552C84.3173 50.8507 84.296 51.1173 84.264 51.352H83.784L83.064 50.088H80.872V53.928ZM89.3151 43.8H94.2431V44.408C93.8911 44.632 93.4858 44.7867 93.0271 44.872V51.032C93.0271 51.5547 93.0858 51.992 93.2031 52.344C93.3205 52.696 93.4911 52.984 93.7151 53.208C93.9391 53.4213 94.2058 53.576 94.5151 53.672C94.8351 53.768 95.1925 53.816 95.5871 53.816C95.9391 53.816 96.2591 53.768 96.5471 53.672C96.8458 53.5653 97.1018 53.4 97.3151 53.176C97.5391 52.952 97.7098 52.6587 97.8271 52.296C97.9445 51.9333 98.0031 51.4853 98.0031 50.952V44.952C97.7578 44.8987 97.5018 44.824 97.2351 44.728C96.9791 44.632 96.7658 44.5253 96.5951 44.408V43.8H100.563V44.408C100.371 44.5467 100.158 44.6587 99.9231 44.744C99.6885 44.8293 99.4591 44.8987 99.2351 44.952V50.968C99.2351 52.3333 98.8725 53.3733 98.1471 54.088C97.4325 54.792 96.4191 55.144 95.1071 55.144C93.6778 55.144 92.5738 54.824 91.7951 54.184C91.0165 53.544 90.6271 52.52 90.6271 51.112V44.872C90.4138 44.84 90.1898 44.7867 89.9551 44.712C89.7205 44.6267 89.5071 44.5253 89.3151 44.408V43.8ZM111.481 43.8H115.449V44.408C115.246 44.568 115.022 44.712 114.777 44.84C114.531 44.9573 114.302 45.048 114.089 45.112V55.192H112.729L107.081 47.032L106.441 45.8H106.393L106.537 47.08V53.752C106.75 53.8053 106.985 53.896 107.241 54.024C107.507 54.1413 107.731 54.264 107.913 54.392V55H103.961V54.392C104.153 54.264 104.361 54.1467 104.585 54.04C104.819 53.9227 105.059 53.8267 105.305 53.752V45.016C105.091 44.9307 104.878 44.8347 104.665 44.728C104.451 44.6213 104.259 44.5093 104.089 44.392V43.8H107.545L112.137 50.456L112.873 51.832H112.937L112.857 50.456V45.112C112.601 45.0267 112.35 44.9253 112.105 44.808C111.87 44.68 111.662 44.5467 111.481 44.408V43.8ZM119.086 55V54.392C119.267 54.2853 119.47 54.1947 119.694 54.12C119.918 54.0347 120.152 53.9707 120.398 53.928V44.872C120.152 44.8187 119.912 44.7547 119.678 44.68C119.454 44.5947 119.256 44.504 119.086 44.408V43.8H120.942C121.123 43.8 121.347 43.7947 121.614 43.784C121.88 43.7733 122.158 43.7627 122.446 43.752C122.734 43.7307 123.011 43.7147 123.278 43.704C123.555 43.6827 123.79 43.672 123.982 43.672C124.91 43.672 125.736 43.7947 126.462 44.04C127.198 44.2853 127.816 44.6427 128.318 45.112C128.83 45.5813 129.219 46.1627 129.486 46.856C129.763 47.5493 129.902 48.3493 129.902 49.256C129.902 50.1413 129.774 50.9467 129.518 51.672C129.262 52.3973 128.878 53.016 128.366 53.528C127.854 54.04 127.203 54.44 126.414 54.728C125.635 55.0053 124.718 55.144 123.662 55.144C123.523 55.144 123.336 55.1333 123.102 55.112C122.867 55.1013 122.616 55.0853 122.35 55.064C122.083 55.0533 121.816 55.0373 121.55 55.016C121.283 55.0053 121.048 55 120.846 55H119.086ZM123.774 44.712C123.582 44.712 123.39 44.7173 123.198 44.728C123.006 44.7387 122.84 44.7547 122.702 44.776V54.04C122.744 54.0507 122.819 54.0613 122.926 54.072C123.032 54.072 123.139 54.0773 123.246 54.088C123.363 54.088 123.475 54.0933 123.582 54.104C123.688 54.104 123.768 54.104 123.822 54.104C124.44 54.104 124.963 53.976 125.39 53.72C125.827 53.464 126.184 53.1173 126.462 52.68C126.739 52.2427 126.942 51.7307 127.07 51.144C127.198 50.5573 127.262 49.9333 127.262 49.272C127.262 48.6853 127.192 48.12 127.054 47.576C126.926 47.032 126.723 46.5467 126.446 46.12C126.168 45.6933 125.806 45.352 125.358 45.096C124.92 44.84 124.392 44.712 123.774 44.712Z" fill="#313B74"/>
<defs>
<filter id="filter0_d_1210_2061" x="10" y="28" width="20" height="20" filterUnits="userSpaceOnUse" color-interpolation-filters="sRGB">
<feFlood flood-opacity="0" result="BackgroundImageFix"/>
<feColorMatrix in="SourceAlpha" type="matrix" values="0 0 0 0 0 0 0 0 0 0 0 0 0 0 0 0 0 0 127 0" result="hardAlpha"/>
<feOffset dx="1" dy="1"/>
<feGaussianBlur stdDeviation="0.5"/>
<feComposite in2="hardAlpha" operator="out"/>
<feColorMatrix type="matrix" values="0 0 0 0 0 0 0 0 0 0 0 0 0 0 0 0 0 0 0.5 0"/>
<feBlend mode="normal" in2="BackgroundImageFix" result="effect1_dropShadow_1210_2061"/>
<feBlend mode="normal" in="SourceGraphic" in2="effect1_dropShadow_1210_2061" result="shape"/>
</filter>
<linearGradient id="paint0_linear_1210_2061" x1="18.5" y1="-5.5" x2="18.5" y2="30.5" gradientUnits="userSpaceOnUse">
<stop stop-color="#2771AD"/>
<stop offset="1" stop-color="#264E9D"/>
</linearGradient>
<linearGradient id="paint1_linear_1210_2061" x1="19" y1="18" x2="19" y2="56" gradientUnits="userSpaceOnUse">
<stop stop-color="#232056"/>
<stop offset="1" stop-color="#313F96"/>
</linearGradient>
</defs>
</svg>
