<svg width="18" height="18" viewBox="0 0 18 18" fill="none" xmlns="http://www.w3.org/2000/svg">
<path d="M12.0173 11.1172L10.5502 12.9482C8.27871 11.6135 6.38534 9.72119 5.04934 7.45043L6.88318 5.98343C7.09804 5.81134 7.24988 5.57297 7.31501 5.3055C7.38013 5.03804 7.35488 4.75655 7.24319 4.50495L5.57165 0.740776C5.45178 0.470795 5.23994 0.25215 4.97388 0.123811C4.70782 -0.00452908 4.40483 -0.0342244 4.11892 0.0400174L0.936615 0.865534C0.639757 0.943159 0.381669 1.12695 0.211227 1.38209C0.0407851 1.63724 -0.0301767 1.94603 0.0117798 2.24998C0.570215 6.22649 2.40806 9.91311 5.2475 12.7525C8.08693 15.5919 11.7736 17.4298 15.7501 17.9882C16.0541 18.0302 16.3629 17.9593 16.6181 17.7888C16.8732 17.6184 17.057 17.3603 17.1346 17.0634L17.9601 13.8814C18.0342 13.5955 18.0045 13.2926 17.8762 13.0265C17.7479 12.7604 17.5295 12.5485 17.2596 12.4284L13.4961 10.7568C13.2444 10.645 12.9628 10.6197 12.6952 10.6849C12.4277 10.7501 12.1893 10.9021 12.0173 11.1172Z" fill="#004BBC"/>
</svg>
