<svg width="18" height="19" viewBox="0 0 18 19" fill="none" xmlns="http://www.w3.org/2000/svg">
<path d="M12.0173 11.8564L10.5502 13.6874C8.27871 12.3527 6.38534 10.4605 5.04934 8.18969L6.88318 6.72269C7.09804 6.5506 7.24988 6.31222 7.31501 6.04476C7.38013 5.7773 7.35488 5.4958 7.24319 5.24421L5.57165 1.48003C5.45178 1.21005 5.23994 0.991408 4.97388 0.863069C4.70782 0.734729 4.40483 0.705033 4.11892 0.779275L0.936615 1.60479C0.639757 1.68242 0.381669 1.8662 0.211227 2.12135C0.0407851 2.3765 -0.0301767 2.68528 0.0117798 2.98924C0.570215 6.96575 2.40806 10.6524 5.2475 13.4918C8.08693 16.3312 11.7736 18.169 15.7501 18.7274C16.0541 18.7695 16.3629 18.6985 16.6181 18.5281C16.8732 18.3576 17.057 18.0995 17.1346 17.8026L17.9601 14.6207C18.0342 14.3347 18.0045 14.0318 17.8762 13.7657C17.7479 13.4997 17.5295 13.2877 17.2596 13.1676L13.4961 11.4961C13.2444 11.3843 12.9628 11.359 12.6952 11.4241C12.4277 11.4893 12.1893 11.6413 12.0173 11.8564Z" fill="white"/>
</svg>
