<svg width="48" height="48" viewBox="0 0 48 48" fill="none" xmlns="http://www.w3.org/2000/svg">
<path d="M18.5 13C17.6716 13 17 13.6716 17 14.5C17 15.3284 17.6716 16 18.5 16H21.5C22.3284 16 23 15.3284 23 14.5C23 13.6716 22.3284 13 21.5 13H18.5Z" fill="#8CC540"/>
<path d="M27.5 13C26.6716 13 26 13.6716 26 14.5C26 15.3284 26.6716 16 27.5 16H30.5C31.3284 16 32 15.3284 32 14.5C32 13.6716 31.3284 13 30.5 13H27.5Z" fill="#8CC540"/>
<path d="M17 20.5C17 19.6716 17.6716 19 18.5 19H21.5C22.3284 19 23 19.6716 23 20.5C23 21.3284 22.3284 22 21.5 22H18.5C17.6716 22 17 21.3284 17 20.5Z" fill="#8CC540"/>
<path d="M27.5 19C26.6716 19 26 19.6716 26 20.5C26 21.3284 26.6716 22 27.5 22H30.5C31.3284 22 32 21.3284 32 20.5C32 19.6716 31.3284 19 30.5 19H27.5Z" fill="#8CC540"/>
<path d="M17 26.5C17 25.6716 17.6716 25 18.5 25H21.5C22.3284 25 23 25.6716 23 26.5C23 27.3284 22.3284 28 21.5 28H18.5C17.6716 28 17 27.3284 17 26.5Z" fill="#8CC540"/>
<path d="M27.5 25C26.6716 25 26 25.6716 26 26.5C26 27.3284 26.6716 28 27.5 28H30.5C31.3284 28 32 27.3284 32 26.5C32 25.6716 31.3284 25 30.5 25H27.5Z" fill="#8CC540"/>
<path fill-rule="evenodd" clip-rule="evenodd" d="M24.5 0.00292969C22.4572 0.00292969 20.4828 0.739413 18.9391 2.0773C17.7298 3.12528 16.8483 4.48723 16.3835 6.00011H11.5C10.6716 6.00011 10 6.67168 10 7.50011V42.5001C10 43.3285 10.6716 44.0001 11.5 44.0001H20.5C21.3284 44.0001 22 43.3285 22 42.5001V37.5001C22 36.8371 22.2634 36.2012 22.7322 35.7323C23.2011 35.2635 23.837 35.0001 24.5 35.0001C25.163 35.0001 25.7989 35.2635 26.2678 35.7323C26.7366 36.2012 27 36.8371 27 37.5001V42.5001C27 43.3285 27.6716 44.0001 28.5 44.0001H37.5C38.3284 44.0001 39 43.3285 39 42.5001V7.50011C39 6.67168 38.3284 6.00011 37.5 6.00011H32.6165C32.1517 4.48723 31.2702 3.12528 30.0609 2.0773C28.5172 0.739413 26.5428 0.00292969 24.5 0.00292969ZM20.9038 4.34439C21.9022 3.4792 23.1789 3.00293 24.5 3.00293C25.8211 3.00293 27.0978 3.4792 28.0962 4.34439C29.0945 5.20959 29.7474 6.4057 29.9352 7.71334C30.0413 8.45182 30.6739 9.00011 31.42 9.00011H36V41.0001H30V37.5001C30 36.0414 29.4205 34.6425 28.3891 33.611C27.3576 32.5796 25.9587 32.0001 24.5 32.0001C23.0413 32.0001 21.6424 32.5796 20.6109 33.611C19.5795 34.6425 19 36.0414 19 37.5001V41.0001H13V9.00011H17.58C18.3261 9.00011 18.9587 8.45182 19.0648 7.71334C19.2526 6.4057 19.9055 5.20959 20.9038 4.34439Z" fill="#004BBC"/>
<path d="M2 14.5C2 13.6716 2.67157 13 3.5 13H6.5C7.32843 13 8 13.6716 8 14.5C8 15.3284 7.32843 16 6.5 16H5V41H6.5C7.32843 41 8 41.6716 8 42.5C8 43.3284 7.32843 44 6.5 44H3.5C2.67157 44 2 43.3284 2 42.5V14.5Z" fill="#004BBC"/>
<path d="M41 14.5C41 13.6716 41.6716 13 42.5 13H45.5C46.3284 13 47 13.6716 47 14.5V42.5C47 43.3284 46.3284 44 45.5 44H42.5C41.6716 44 41 43.3284 41 42.5C41 41.6716 41.6716 41 42.5 41H44V16H42.5C41.6716 16 41 15.3284 41 14.5Z" fill="#004BBC"/>
</svg>
